{"title":"Trzy kolory Bialy (1994) [Three Colors White}","uid":6769923,"size":4693633698,"categoryP":"video","categoryS":"hd___movies","magnet":"?xt=urn:btih:864be2a2bf90342dff720a2221cacd747f49cc69&amp;dn=Trzy+kolory+Bialy+%281994%29+%5BThree+Colors+White%7D&amp;tr=udp%3A%2F%2Ftracker.openbittorrent.com%3A80&amp;tr=udp%3A%2F%2Fopen.demonii.com%3A1337&amp;tr=udp%3A%2F%2Ftracker.coppersurfer.tk%3A6969&amp;tr=udp%3A%2F%2Fexodus.desync.com%3A6969","seeders":7,"leechers":1,"uploader":"mfccorrea","files":2,"time":1319542779,"description":"The second feature in filmmaker Krzysztof Kieslowski's &quot;Three Colors&quot; trilogy, the black comedy White features Zbigniew Zamachowski as Karol Karol, an expatriate Polish hairdresser whose French wife (the breathtaking Julie Delpy) divorces him after just six months of marriage because of his impotency. Penniless and devoid of his passport, Karol must journey back to Poland by hiding in a trunk. Upon his return, he slowly begins amassing a considerable fortune, ultimately hatching a perverse plot for revenge. Often unjustly dismissed as the weak link in the trilogy, White grows in strength upon repeated viewings. An allegory about equality, the film is mordantly witty, a cynical look at power, marriage and capitalism.\n\n   General\n      Complete name : Three.Colors.White.1994.720p.BluRay.x264-MELiTE.mkv\n      Format : Matroska\n      File size : 4.37 GiB\n      Duration : 1h 27mn\n      Overall bit rate : 7 124 Kbps\n      Encoded date : UTC 2010-12-22 10:35:17\n      Writing application : mkvmerge v3.2.0 ('Beginnings') built on Feb 12 2010 16:46:17\n      Writing library : libebml v0.7.9 + libmatroska v0.8.1\n   Video #1\n      ID : 1\n      Format : AVC\n      Format/Info : Advanced Video Codec\n      Format profile : &lt;a class=&quot;__cf_email__&quot; href=&quot;/cdn-cgi/l/email-protection&quot; data-cfemail=&quot;4800212f2008047c6679&quot;&gt;[email&amp;#160;protected]&lt;/a&gt;&lt;script cf-hash='f9e31' type=&quot;text/javascript&quot;&gt;\n/* &lt;![CDATA[ */!function(){try{var t=&quot;currentScript&quot;in document?document.currentScript:function(){for(var t=document.getElementsByTagName(&quot;script&quot;),e=t.length;e--;)if(t[e].getAttribute(&quot;cf-hash&quot;))return t[e]}();if(t&amp;&amp;t.previousSibling){var e,r,n,i,c=t.previousSibling,a=c.getAttribute(&quot;data-cfemail&quot;);if(a){for(e=&quot;&quot;,r=parseInt(a.substr(0,2),16),n=2;a.length-n;n+=2)i=parseInt(a.substr(n,2),16)^r,e+=String.fromCharCode(i);e=document.createTextNode(e),c.parentNode.replaceChild(e,c)}}}catch(u){}}();/* ]]&gt; */&lt;/script&gt;\n      Format settings, CABAC : Yes\n      Format settings, ReFrames : 5 frames\n      Muxing mode : Container profile=&lt;a class=&quot;__cf_email__&quot; href=&quot;/cdn-cgi/l/email-protection&quot; data-cfemail=&quot;63360d080d0c140d23574d52&quot;&gt;[email&amp;#160;protected]&lt;/a&gt;&lt;script cf-hash='f9e31' type=&quot;text/javascript&quot;&gt;\n/* &lt;![CDATA[ */!function(){try{var t=&quot;currentScript&quot;in document?document.currentScript:function(){for(var t=document.getElementsByTagName(&quot;script&quot;),e=t.length;e--;)if(t[e].getAttribute(&quot;cf-hash&quot;))return t[e]}();if(t&amp;&amp;t.previousSibling){var e,r,n,i,c=t.previousSibling,a=c.getAttribute(&quot;data-cfemail&quot;);if(a){for(e=&quot;&quot;,r=parseInt(a.substr(0,2),16),n=2;a.length-n;n+=2)i=parseInt(a.substr(n,2),16)^r,e+=String.fromCharCode(i);e=document.createTextNode(e),c.parentNode.replaceChild(e,c)}}}catch(u){}}();/* ]]&gt; */&lt;/script&gt;\n      Codec ID : V_MPEG4/ISO/AVC\n      Duration : 1h 27mn\n      Bit rate : 5 472 Kbps\n      Nominal bit rate : 5 616 Kbps\n      Width : 1 280 pixels\n      Height : 688 pixels\n      Display aspect ratio : 1.860\n      Frame rate : 24.000 fps\n      Resolution : 24 bits\n      Colorimetry : 4:2:0\n      Scan type : Progressive\n      Bits/(Pixel*Frame) : 0.259\n      Stream size : 3.36 GiB (77%)\n      Writing library : x264 core 112 r1834 a51816a\n   Audio #2\n      ID : 2\n      Format : DTS\n      Format/Info : Digital Theater Systems\n      Codec ID : A_DTS\n      Duration : 1h 27mn\n      Bit rate mode : Constant\n      Bit rate : 1 510 Kbps\n      Channel(s) : 5 channels\n      Channel positions : Front: L C R, Surround: L R\n      Sampling rate : 48.0 KHz\n      Resolution : 16 bits\n      Stream size : 949 MiB (21%)\n      Language : French\n   Text #3\n      ID : 3\n      Format : UTF-8\n      Codec ID : S_TEXT/UTF8\n      Codec ID/Info : UTF-8 Plain Text\n      Language : English\n &lt;a href=&quot;\nhttp://www.imdb.com/title/tt0111507/&quot; rel=&quot;nofollow&quot; target=&quot;_NEW&quot;&gt;\nhttp://www.imdb.com/title/tt0111507/&lt;/a&gt;\n\nFrench and Polish audio; English (muxed in mkv) and Portuguese subtitles","torrent":{"xt":"urn:btih:864be2a2bf90342dff720a2221cacd747f49cc69","amp;dn":"Trzy+kolory+Bialy+%281994%29+%5BThree+Colors+White%7D","amp;tr":["udp%3A%2F%2Ftracker.openbittorrent.com%3A80","udp%3A%2F%2Fopen.demonii.com%3A1337","udp%3A%2F%2Ftracker.coppersurfer.tk%3A6969","udp%3A%2F%2Fexodus.desync.com%3A6969"],"infoHash":"864be2a2bf90342dff720a2221cacd747f49cc69","infoHashBuffer":{"type":"Buffer","data":[134,75,226,162,191,144,52,45,255,114,10,34,33,202,205,116,127,73,204,105]},"announce":[],"urlList":[]}}